 http://www.shotpix.com/images/66455315344479519299.jpg

 
http://www.imdb.com/title/tt2091473/

 
http://www.shotpix.com/images/73432447722386001981.png


A salesman for a natural gas company experiences life-changing events after arriving in a small town, where his corporation wants to tap into the available resources.
 


Director: 
Gus Van Sant

 Writers: 
John Krasinski (screenplay), Matt Damon  

Stars:
 Matt Damon, Frances McDormand and John Krasinski 

Genres:
 Drama 


Format                                   : AVI
Format/Info                              : Audio Video Interleave
File size                                : 1.37 GiB
Duration                                 : 1h 46mn
Overall bit rate                         : 1 834 Kbps
Writing application                      : VirtualDubMod 1.5.10.2 (build 2542/release)
Writing library                          : VirtualDub build 34807/release

Video
ID                                       : 0
Format                                   : MPEG-4 Visual
Format profile                           : Advanced Simple@L5
Format settings, BVOP                    : 4
Format settings, QPel                    : No
Format settings, GMC                     : No warppoints
Format settings, Matrix                  : Default (H.263)
Muxing mode                              : Packed bitstream
Codec ID                                 : XVID
Codec ID/Hint                            : XviD
Duration                                 : 1h 46mn
Bit rate                                 : 1 377 Kbps
Width                                    : 720 pixels
Height                                   : 384 pixels
Display aspect ratio                     : 1.85:1
Frame rate                               : 23.976 fps
Color space                              : YUV
Chroma subsampling                       : 4:2:0
Bit depth                                : 8 bits
Scan type                                : Progressive
Compression mode                         : Lossy
Bits/(Pixel*Frame)                       : 0.208
Stream size                              : 1.03 GiB (75%)
Writing library                          : XviD 64

Audio
ID                                       : 1
Format                                   : AC-3
Format/Info                              : Audio Coding 3
Mode extension                           : CM (complete main)
Format settings, Endianness              : Big
Codec ID                                 : 2000
Duration                                 : 1h 46mn
Bit rate mode                            : Constant
Bit rate                                 : 448 Kbps
Channel(s)                               : 6 channels
Channel positions                        : Front: L C R, Side: L R, LFE
Sampling rate                            : 48.0 KHz
Bit depth                                : 16 bits
Compression mode                         : Lossy
Delay relative to video                  : 1s 0ms
Stream size                              : 342 MiB (24%)
Alignment                                : Split accross interleaves
Interleave, duration                     : 42 ms (1.00 video frame)
Interleave, preload duration             : 500 ms




 
http://www.shotpix.com/images/24865364654944350382.png 
http://www.shotpix.com/images/66039048305007537802.png 
http://www.shotpix.com/images/76601270590790744824.png 
http://www.shotpix.com/images/61647499655120196010.png